<?xml version="1.0" encoding="iso-8859-1"?>
<!-- Generator: Adobe Illustrator 19.0.0, SVG Export Plug-In . SVG Version: 6.00 Build 0)  -->
<svg xmlns="http://www.w3.org/2000/svg" xmlns:xlink="http://www.w3.org/1999/xlink" version="1.1" id="Capa_1" x="0px" y="0px" viewBox="0 0 512 512" style="enable-background:new 0 0 512 512;" xml:space="preserve" width="512px" height="512px">
<g>
	<g>
		<path d="M256,0C192.926,0,133.528,23.994,86.814,65.604l115.045,115.245l132.026,0.097l0.01-16.176    c0.674-24.536,20.82-43.77,45.385-43.77H391c8.291,0,15,6.709,15,15s-6.709,15-15,15h-11.719c-8.188,0-15.766,6.401-15.985,14.59    c-0.1,3.654-0.169,6.73-0.214,9.41H363l0.2,101.193c-0.032,2.145-0.065,4.328-0.101,6.593C372.183,291.026,376,302.798,376,316    c0,10.721-3.926,20.445-10.206,28.184c0.709,0.708,1.256,1.562,1.917,2.316l78.686,78.686C488.006,378.472,512,319.074,512,256    C512,115.086,396.955,0,256,0z" fill="#D80027"/>
	</g>
</g>
<g>
	<g>
		<polygon points="231.702,210.091 292.211,271 292.812,271 332.4,271 332.81,271 332.865,210.16   " fill="#D80027"/>
	</g>
</g>
<g>
	<g>
		<polygon points="189.5,211.111 156.771,211.083 176.811,271 249.789,271   " fill="#D80027"/>
	</g>
</g>
<g>
	<g>
		<path d="M194.506,361c-8.276,0-15,6.724-15,15s6.724,15,15,15s15-6.724,15-15S202.782,361,194.506,361z" fill="#D80027"/>
	</g>
</g>
<g>
	<g>
		<path d="M374.345,395.555C367.039,410.556,351.779,421,334.003,421c-24.814,0-45-20.186-45-45c0-5.284,1.082-10.285,2.763-15    h-55.023c1.681,4.715,2.763,9.716,2.763,15c0,24.814-20.186,45-45,45c-24.814,0-45-20.186-45-45c0-24.814,20.186-45,45-45    c0.341,0,0.656,0.093,0.994,0.101c0.176-0.005,0.322-0.101,0.5-0.101h113.789l-30-30H166c-6.46,0-12.188-4.131-14.224-10.254    l-30-90c-3.222-9.666,3.92-19.684,14.15-19.746l23.736-0.126l-94.059-94.06C23.994,133.528,0,192.926,0,256    c0,140.914,115.045,256,256,256c63.074,0,122.472-23.994,169.186-65.604L374.345,395.555z" fill="#D80027"/>
	</g>
</g>
<g>
	<g>
		<path d="M334.003,361c-8.276,0-15,6.724-15,15s6.724,15,15,15s15-6.724,15-15C349.003,368.177,341.858,361,334.003,361z" fill="#D80027"/>
	</g>
</g>
<g>
	<g>
		<path d="M331,301h-8.789l21.896,21.896c1.108-2.091,1.893-4.367,1.893-6.896C346,307.724,339.276,301,331,301z" fill="#D80027"/>
	</g>
</g>
<g>
</g>
<g>
</g>
<g>
</g>
<g>
</g>
<g>
</g>
<g>
</g>
<g>
</g>
<g>
</g>
<g>
</g>
<g>
</g>
<g>
</g>
<g>
</g>
<g>
</g>
<g>
</g>
<g>
</g>
</svg>
